<?xml version="1.0" standalone="no"?>
<!DOCTYPE svg PUBLIC "-//W3C//DTD SVG 20010904//EN"
 "http://www.w3.org/TR/2001/REC-SVG-20010904/DTD/svg10.dtd">
<svg version="1.0" xmlns="http://www.w3.org/2000/svg"
 width="16.000000pt" height="16.000000pt" viewBox="0 0 16.000000 16.000000"
 preserveAspectRatio="xMidYMid meet">
<metadata>
Created by potrace 1.11, written by Peter Selinger 2001-2013
</metadata>
<g transform="translate(0.000000,16.000000) scale(0.002286,-0.002286)"
fill="#000000" stroke="none">
<path d="M0 3500 l0 -3500 1955 0 1955 0 0 1344 0 1344 -80 -5 -80 -6 0 161 0
160 68 8 c37 4 207 4 377 1 477 -10 859 -47 1307 -127 92 -17 171 -30 177 -30
6 0 -55 109 -135 241 -80 133 -143 243 -142 244 2 2 63 39 137 83 l135 81 337
-562 c185 -309 333 -564 328 -566 -10 -3 -268 54 -299 66 -8 3 -24 8 -35 10
-11 2 -110 23 -220 48 -295 66 -499 100 -897 150 -61 7 -446 34 -555 38 l-103
4 0 -1344 0 -1343 1385 0 1385 0 0 3500 0 3500 -3500 0 -3500 0 0 -3500z
m3410 -679 l0 -160 -57 -6 c-272 -29 -787 -106 -800 -119 -2 -2 100 -65 227
-141 126 -76 230 -139 230 -141 0 -1 -17 -30 -37 -64 -42 -68 -44 -71 -91
-152 -27 -47 -37 -56 -50 -49 -129 69 -1131 682 -1121 685 12 5 326 78 389 91
14 3 93 21 175 40 294 70 910 167 1098 174 l37 1 0 -159z"/>
</g>
</svg>
